# xmcd
#
# Track frame offsets: 
#        150
#        18322
#        35287
#        50728
#        71437
#        88347
#        99370
#        119413
#        138712
#        156587
#
# Disc length: 2257 seconds
#
# Revision: 0
# Processed by: cddbd v1.5.1PL2 Copyright (c) Steve Scherf et al.
# Submitted via: ExactAudioCopy v0.90b4
#
DISCID=8c08cf0a
DTITLE=James Mitchell Jr. - The Blues And More
DYEAR=1900
DGENRE=Blues
TTITLE0=Good Night My Love
TTITLE1=Born Under A Bad Sign
TTITLE2=Change Is Going To Come
TTITLE3=Don't Tell Me What To Do
TTITLE4=Fever
TTITLE5=Green Onions
TTITLE6=Just My Imagination
TTITLE7=Little Red Rooster
TTITLE8=My Girl
TTITLE9=Under The Boardwalk
EXTD=
EXTT0=
EXTT1=
EXTT2=
EXTT3=
EXTT4=
EXTT5=
EXTT6=
EXTT7=
EXTT8=
EXTT9=
PLAYORDER=
